<svg width="21" height="22" viewBox="0 0 21 22" fill="none" xmlns="http://www.w3.org/2000/svg">
<path id="Vector" d="M11.409 0.774771C10.5054 0.40841 9.49461 0.40841 8.591 0.774771L6.401 1.66277L15.993 5.39277L19.367 4.08977C19.2287 3.97499 19.0736 3.88223 18.907 3.81477L11.409 0.774771ZM20 5.45277L10.75 9.02677V11.3268C11.3573 10.6745 12.0925 10.1545 12.9098 9.79922C13.7271 9.44392 14.6088 9.26096 15.5 9.26177C17.247 9.26177 18.832 9.95077 20 11.0718V5.45277ZM9.25 9.02677V13.9718C9.08366 14.5542 8.99951 15.157 9 15.7628C9 16.3838 9.087 16.9848 9.25 17.5528V19.9498C9.02469 19.9038 8.8041 19.8372 8.591 19.7508L1.093 16.7108C0.770033 16.5799 0.493473 16.3557 0.298748 16.0667C0.104022 15.7778 -2.02553e-06 15.4372 0 15.0888V5.45377L9.25 9.02677ZM0.633 4.08977L10 7.70877L13.917 6.19477L4.374 2.48477L1.093 3.81477C0.923 3.88377 0.769 3.97677 0.633 4.08977ZM15.5 21.2618C16.9587 21.2618 18.3576 20.6823 19.3891 19.6509C20.4205 18.6194 21 17.2205 21 15.7618C21 14.3031 20.4205 12.9041 19.3891 11.8727C18.3576 10.8412 16.9587 10.2618 15.5 10.2618C14.0413 10.2618 12.6424 10.8412 11.6109 11.8727C10.5795 12.9041 10 14.3031 10 15.7618C10 17.2205 10.5795 18.6194 11.6109 19.6509C12.6424 20.6823 14.0413 21.2618 15.5 21.2618ZM18.146 13.4078C18.2398 13.3139 18.367 13.2611 18.4996 13.261C18.6323 13.2609 18.7596 13.3135 18.8535 13.4073C18.9474 13.501 19.0002 13.6282 19.0003 13.7609C19.0004 13.8936 18.9478 14.0209 18.854 14.1148L14.854 18.1148C14.8076 18.1613 14.7524 18.1983 14.6916 18.2235C14.6309 18.2487 14.5658 18.2617 14.5 18.2617C14.4342 18.2617 14.3691 18.2487 14.3084 18.2235C14.2476 18.1983 14.1924 18.1613 14.146 18.1148L12.146 16.1148C12.0996 16.0683 12.0628 16.0131 12.0377 15.9524C12.0126 15.8917 11.9997 15.8266 11.9997 15.7609C11.9998 15.6952 12.0128 15.6302 12.0379 15.5695C12.0631 15.5088 12.1 15.4537 12.1465 15.4073C12.193 15.3608 12.2482 15.324 12.3089 15.2989C12.3696 15.2738 12.4347 15.2609 12.5004 15.261C12.5661 15.261 12.6311 15.274 12.6918 15.2992C12.7525 15.3244 12.8076 15.3613 12.854 15.4078L14.5 17.0548L18.146 13.4078Z" fill="#1FAF38"/>
</svg>
