<svg width="236" height="171" viewBox="0 0 236 171" fill="none" xmlns="http://www.w3.org/2000/svg">
<path d="M103.087 122.8C110.82 122.8 118.087 122 124.887 120.4C131.687 118.8 137.553 116.133 142.487 112.4C147.553 108.667 151.487 103.867 154.287 98C157.22 92 158.687 84.6667 158.687 76C158.687 67.3333 157.22 60.0667 154.287 54.2C151.487 48.2 147.553 43.3333 142.487 39.6C137.553 35.8667 131.687 33.2 124.887 31.6C118.087 30 110.82 29.2 103.087 29.2H31.8867V122.8H103.087ZM103.087 40.4C109.087 40.4 114.753 41 120.087 42.2C125.553 43.2667 130.287 45.2 134.287 48C138.42 50.8 141.687 54.4667 144.087 59C146.62 63.5333 147.887 69.2 147.887 76C147.887 82.8 146.687 88.5333 144.287 93.2C141.887 97.7333 138.62 101.4 134.487 104.2C130.353 106.867 125.553 108.8 120.087 110C114.753 111.067 109.087 111.6 103.087 111.6H42.6867V40.4H103.087ZM103.087 17C112.82 17 121.82 18.0667 130.087 20.2C138.353 22.2 145.553 25.6 151.687 30.4C157.82 35.0667 162.62 41.1333 166.087 48.6C169.553 56.0667 171.287 65.2 171.287 76C171.287 86.8 169.553 95.9333 166.087 103.4C162.62 110.867 157.82 117 151.687 121.8C145.553 126.467 138.353 129.867 130.087 132C121.82 134 112.82 135 103.087 135H19.6867V17H103.087ZM103.087 146.2C114.687 146.2 125.287 144.933 134.887 142.4C144.62 139.867 152.953 135.8 159.887 130.2C166.953 124.6 172.42 117.333 176.287 108.4C180.287 99.4667 182.287 88.6667 182.287 76C182.287 63.3333 180.287 52.5333 176.287 43.6C172.42 34.6667 166.953 27.4 159.887 21.8C152.953 16.2 144.62 12.1333 134.887 9.59999C125.287 7.06666 114.687 5.79999 103.087 5.79999H8.68672V146.2H103.087ZM3.68672 0.799998H103.087C110.687 0.799998 118.02 1.2 125.087 1.99999C132.153 2.66666 139.087 4.26666 145.887 6.79999C152.82 9.33332 159.687 13.0667 166.487 18C173.42 22.9333 180.487 29.6 187.687 38C193.687 44 198.353 52.2 201.687 62.6C205.02 72.8667 206.687 84 206.687 96C206.687 109.467 204.62 120.933 200.487 130.4C196.353 139.867 190.553 147.533 183.087 153.4C175.753 159.4 166.953 163.733 156.687 166.4C146.42 169.2 135.22 170.6 123.087 170.6H24.2867L3.68672 151.2V0.799998ZM67.0867 106.6H103.087C108.42 106.6 113.487 106.133 118.287 105.2C123.087 104.133 127.287 102.467 130.887 100.2C134.62 97.8 137.553 94.6667 139.687 90.8C141.82 86.8 142.887 81.8667 142.887 76C142.887 73.0667 142.553 70.1333 141.887 67.2C136.02 65.6 129.753 64.8 123.087 64.8H67.0867V106.6Z" fill="white"/>
</svg>
